<svg width="24" height="24" viewBox="0 0 24 24" fill="none" xmlns="http://www.w3.org/2000/svg">
<path d="M7.4001 20.975C6.1501 20.975 5.07926 20.5292 4.1876 19.6375C3.29593 18.7458 2.8501 17.675 2.8501 16.425C2.8501 15.625 3.0501 14.8708 3.4501 14.1625C3.8501 13.4542 4.4001 12.8833 5.1001 12.45V5.3C5.1001 4.66667 5.3251 4.125 5.7751 3.675C6.2251 3.225 6.76676 3 7.4001 3C8.03343 3 8.5751 3.225 9.0251 3.675C9.4751 4.125 9.7001 4.66667 9.7001 5.3V12.45C10.4001 12.8833 10.9501 13.4542 11.3501 14.1625C11.7501 14.8708 11.9501 15.625 11.9501 16.425C11.9501 17.675 11.5043 18.7458 10.6126 19.6375C9.72093 20.5292 8.6501 20.975 7.4001 20.975ZM4.3501 16.425H10.4501C10.4501 15.8417 10.2918 15.2667 9.9751 14.7C9.65843 14.1333 9.23343 13.7333 8.7001 13.5L8.2001 13.275V5.3C8.2001 5.06667 8.1251 4.875 7.9751 4.725C7.8251 4.575 7.63343 4.5 7.4001 4.5C7.16676 4.5 6.9751 4.575 6.8251 4.725C6.6751 4.875 6.6001 5.06667 6.6001 5.3V13.275L6.1001 13.5C5.51676 13.7667 5.07926 14.175 4.7876 14.725C4.49593 15.275 4.3501 15.8417 4.3501 16.425ZM13.1751 13.15L16.9251 3.525H18.2501L22.0001 13.15H20.6001L19.5251 10.35H15.6501L14.5751 13.15H13.1751ZM16.0501 9.175H19.1251L17.7751 5.475H17.4001L16.0501 9.175Z" fill="black"/>
</svg>
